<?xml version="1.0" encoding="utf-8"?>
<!-- Generator: Adobe Illustrator 18.0.0, SVG Export Plug-In . SVG Version: 6.00 Build 0)  -->
<!DOCTYPE svg PUBLIC "-//W3C//DTD SVG 1.1//EN" "http://www.w3.org/Graphics/SVG/1.1/DTD/svg11.dtd">
<svg version="1.1" id="Layer_1" xmlns="http://www.w3.org/2000/svg" xmlns:xlink="http://www.w3.org/1999/xlink" x="0px" y="0px"
	 viewBox="0 0 53.3 42.4" enable-background="new 0 0 53.3 42.4" xml:space="preserve">
<path fill="#FFFFFF" d="M42.8,3.9c-1.3-1.1-4.1-3.1-8-3.1c-1.9,0-3.9,0.5-5.8,1.5c-4.4,2.2-5.3,6.7-5.4,9.6
	c-3.3-0.5-9.9-2.2-15.1-8.7L6,0L4.8,3.8C4.7,4-1,22.4,13.1,31.8c-1.8,1.4-4.6,3.2-7.6,4.3L0,38l5.4,2.1c0.2,0.1,6,2.3,13.2,2.3
	c7.7,0,14.1-2.4,19-7.2c8.8-8.6,8.9-19.3,8.7-22.6l6.9-8.7H42.8z M34.7,32.1c-4.1,4-9.5,6-16,6c-2.3,0-4.5-0.3-6.3-0.6
	c3.5-2.1,5.9-4.3,6-4.5l2.2-2.1l-2.8-1.4c-6-2.9-9.3-7.8-9.9-14.5c-0.2-2.2-0.1-4.3,0.1-6c7.5,6.9,15.9,7.3,17.6,7.3l2.7-0.1
	L28,13.8c0-0.1-0.9-5.7,2.9-7.7c1.3-0.7,2.6-1,3.9-1c3.3,0,5.4,2.4,5.4,2.4l0.5,0.6c0.4,0.7,0.9,1.8,1.2,3.1l-0.1,0.1l0.1,0.9
	C42.1,12.3,43.3,23.6,34.7,32.1z"/>
</svg>
