<?xml version="1.0" encoding="utf-8"?>
<svg viewBox="0 0 497 121" xmlns="http://www.w3.org/2000/svg">
  <ellipse cx="254.27" cy="57.877" rx="57.37" ry="57.37" style="fill: rgb(141, 198, 63);"/>
  <ellipse cx="435.718" cy="57.474" rx="57.37" ry="57.37" style="fill: rgb(141, 198, 63);"/>
  <ellipse cx="62.148" cy="57.878" rx="57.37" ry="57.37" style="fill: rgb(141, 198, 63);"/>
  <path d="M 14.661 25.223 L 116.51 75.505 C 109.022 98.48 87.426 115.082 61.952 115.082 C 30.267 115.082 4.582 89.397 4.582 57.712 C 4.582 45.651 8.304 34.459 14.661 25.223 Z" style="fill: rgb(253, 187, 48);"/>
  <path d="M 75.707 114.37 C 71.278 115.466 66.647 116.048 61.879 116.048 C 40.22 116.048 21.364 104.046 11.6 86.329 L 63.904 51.375 Z" style="fill: rgb(242, 102, 73);"/>
  <path d="M 207.317 25.223 L 309.166 75.505 C 301.678 98.48 280.082 115.082 254.608 115.082 C 222.923 115.082 197.238 89.397 197.238 57.712 C 197.238 45.651 200.96 34.459 207.317 25.223 Z" style="fill: rgb(242, 102, 73);"/>
  <path d="M 267.111 113.62 C 262.681 114.716 258.051 115.297 253.283 115.297 C 231.624 115.297 212.768 103.296 203.004 85.578 L 255.308 50.624 Z" style="fill: rgb(253, 188, 48);"/>
</svg>